<svg id="Layer_1" enable-background="new 0 0 512 512" height="512" viewBox="0 0 512 512" width="512" xmlns="http://www.w3.org/2000/svg"><g><circle cx="383.47" cy="178.538" fill="#ffd54f" r="40"/><path d="m383.524 138.538c-5.306-.007-10.368 1.028-15.004 2.898 14.649 5.955 24.972 20.33 24.949 37.115s-10.386 31.132-25.051 37.047c4.631 1.883 9.69 2.932 14.996 2.939 22.091.03 40.024-17.854 40.055-39.945.031-22.09-17.853-40.023-39.945-40.054z" fill="#ffc328"/><path d="m241 116.738h30v61.801h-30z" fill="#a35418"/><path d="m205.291 278.282c-.307-115.255-41.507-216.084-92.294-216.084-50.786 0-91.987 100.829-92.294 216.084z" fill="#329c9d"/><path d="m112.998 62.198c-5.108 0-10.117 1.037-15 2.989 43.658 17.458 77.018 109.433 77.293 213.095h30c-.306-115.255-41.507-216.084-92.293-216.084z" fill="#2d8b8c"/><path d="m184.308 143.333c-4.187 3.318-7.561 7.319-15.694 7.319-13.907 0-13.907-11.679-27.808-11.679s-13.901 11.679-27.808 11.679c-13.901 0-13.901-11.679-27.801-11.679-13.901 0-13.901 11.679-27.808 11.679-8.14 0-11.514-4.001-15.701-7.326 16.928-48.876 42.584-81.126 71.31-81.126 28.725 0 54.388 32.257 71.31 81.133z" fill="#f3f3f3"/><path d="m112.998 62.199c-5.107 0-10.115 1.038-14.997 2.989 22.866 9.146 42.903 38.74 56.844 79.74 3.431 2.881 6.907 5.724 13.768 5.724 8.134 0 11.507-4.001 15.694-7.319-16.921-48.876-42.584-81.134-71.309-81.134z" fill="#e4e4e4"/><path d="m282.964 116.738h-53.928c-30.165 0-54.619-24.454-54.619-54.619 0-30.165 24.454-54.619 54.619-54.619h53.928c30.165 0 54.619 24.454 54.619 54.619 0 30.165-24.454 54.619-54.619 54.619z" fill="#6de470"/><path d="m282.964 7.5h-30c30.165 0 54.619 24.454 54.619 54.619 0 30.165-24.454 54.619-54.619 54.619h30c30.165 0 54.619-24.454 54.619-54.619 0-30.165-24.454-54.619-54.619-54.619z" fill="#4dcc68"/><ellipse cx="256" cy="251" fill="#6de470" rx="176" ry="83"/><path d="m256 168c-5.054 0-10.054.106-15 .303 90.179 3.59 161 39.24 161 82.697s-70.821 79.107-161 82.697c4.946.197 9.946.303 15 .303 97.202 0 176-37.16 176-83s-78.798-83-176-83z" fill="#4dcc68"/><path d="m504.5 239.195c0-1.791-1.545-3.213-3.326-3.034-17.451 1.753-18.558 17.235-38.096 17.235-20.711 0-20.711-17.396-41.423-17.396-20.709 0-20.709 17.396-41.417 17.396-20.709 0-20.709-17.396-41.418-17.396-20.708 0-20.708 17.396-41.417 17.396-20.708 0-20.708-17.396-41.416-17.396-20.705 0-20.705 17.396-41.411 17.396-20.708 0-20.708-17.396-41.415-17.396-20.708 0-20.708 17.396-41.417 17.396-20.708 0-20.708-17.396-41.416-17.396-20.707 0-20.707 17.396-41.414 17.396-19.534 0-20.64-15.481-38.087-17.235-1.782-.179-3.327 1.244-3.327 3.034l0 16.805c0 137.243 111.257 248.5 248.5 248.5 137.243 0 248.5-111.257 248.5-248.5z" fill="#bdf9ff"/><g fill="#8bf0ff"><path d="m267.402 253.396c6.703 0 11.232-1.827 15-4.292-7.873-5.151-12.411-13.104-26.416-13.104-6.703 0-11.231 1.827-14.999 4.293 7.872 5.151 12.411 13.103 26.415 13.103z"/><path d="m433.077 253.396c6.703 0 11.236-1.823 15.005-4.287-7.879-5.151-12.416-13.109-26.428-13.109-6.703 0-11.231 1.826-14.999 4.291 7.876 5.151 12.414 13.105 26.422 13.105z"/><path d="m350.237 253.396c6.703 0 11.232-1.827 15-4.292-7.874-5.151-12.412-13.104-26.418-13.104-6.703 0-11.231 1.827-15 4.292 7.874 5.151 12.412 13.104 26.418 13.104z"/><path d="m184.575 253.396c6.703 0 11.231-1.827 14.999-4.293-7.872-5.151-12.41-13.103-26.414-13.103-6.703 0-11.232 1.827-15 4.292 7.872 5.151 12.411 13.104 26.415 13.104z"/><path d="m501.174 236.161c-13.234 1.329-17.074 10.548-26.674 14.929v4.91c0 132.205-103.244 240.279-233.5 248.036 4.964.296 9.962.464 15 .464 137.243 0 248.5-111.257 248.5-248.5v-16.805c0-1.79-1.545-3.213-3.326-3.034z"/><path d="m18.913 253.396c6.7 0 11.228-1.825 14.995-4.29-7.212-4.72-11.623-11.793-23.082-12.945-1.782-.179-3.327 1.244-3.327 3.034v11.898c3.059 1.395 6.696 2.303 11.414 2.303z"/><path d="m101.743 253.396c6.703 0 11.232-1.827 15-4.292-7.873-5.151-12.411-13.104-26.416-13.104-6.703 0-11.231 1.827-15 4.293 7.873 5.151 12.411 13.103 26.416 13.103z"/></g><path d="m391.974 341.341c0 9.895-13.343 17.916-26.738 17.916s-21.767-8.021-21.767-17.916 8.373-17.916 21.767-17.916 26.738 8.021 26.738 17.916z" fill="#f75632"/><path d="m413.188 356.341c-11.716 0-21.213-6.716-21.213-15s9.497-15 21.213-15 11.715 30 0 30z" fill="#e33629"/><g><path d="m383.55 120.487h.01c4.138 0 7.494-3.352 7.5-7.49l.01-7.449c.006-4.142-3.348-7.504-7.49-7.51h-.01c-4.138 0-7.494 3.352-7.5 7.49l-.01 7.449c-.006 4.142 3.347 7.504 7.49 7.51z"/><path d="m340.556 119.01 3.716 6.456c1.388 2.411 3.911 3.76 6.507 3.76 1.27 0 2.556-.322 3.734-1.001 3.59-2.066 4.825-6.651 2.759-10.241l-3.716-6.456c-2.066-3.591-6.651-4.825-10.241-2.759s-4.826 6.651-2.759 10.241z"/><path d="m324.059 135.462c-3.584-2.076-8.173-.854-10.249 2.731-2.076 3.584-.853 8.173 2.731 10.249l6.446 3.733c1.184.686 2.476 1.011 3.752 1.011 2.588 0 5.106-1.341 6.497-3.742 2.076-3.584.853-8.173-2.731-10.249z"/><path d="m436.435 217.882 6.446 3.733c1.184.686 2.476 1.011 3.752 1.011 2.588 0 5.106-1.341 6.497-3.742 2.076-3.584.853-8.173-2.731-10.249l-6.446-3.733c-3.585-2.075-8.173-.853-10.249 2.731s-.853 8.173 2.731 10.249z"/><path d="m449.021 171.128c-4.137 0-7.494 3.351-7.5 7.489-.006 4.142 3.347 7.505 7.489 7.511l7.449.011h.011c4.137 0 7.494-3.351 7.5-7.489.006-4.142-3.347-7.505-7.489-7.511l-7.449-.011z"/><path d="m440.29 153.342c1.27 0 2.556-.322 3.734-1.001l6.456-3.716c3.59-2.066 4.825-6.651 2.759-10.241s-6.652-4.824-10.241-2.759l-6.456 3.716c-3.59 2.066-4.825 6.651-2.759 10.241 1.388 2.411 3.911 3.76 6.507 3.76z"/><path d="m412.563 128.305c1.184.686 2.477 1.011 3.752 1.011 2.588 0 5.106-1.341 6.497-3.742l3.733-6.446c2.076-3.584.853-8.173-2.731-10.249-3.582-2.074-8.172-.854-10.249 2.731l-3.733 6.446c-2.076 3.584-.853 8.173 2.731 10.249z"/><path d="m508.523 231.366c-2.199-1.99-5.147-2.96-8.1-2.668-10.504 1.056-16.578 6.157-21.459 10.257-4.798 4.029-8.264 6.94-15.888 6.94s-11.091-2.911-15.889-6.941c-3.223-2.707-6.906-5.8-11.995-7.915-3.335-7.56-8.613-14.825-15.63-21.625 7.302-8.526 11.387-19.404 11.406-30.814.018-12.688-4.907-24.622-13.866-33.604s-20.883-13.938-33.573-13.956h-.067c-12.662 0-24.57 4.922-33.536 13.864-6.841 6.821-11.345 15.361-13.113 24.653-18.263-4.327-37.993-7.173-58.313-8.387v-36.933h4.464c34.253 0 62.119-27.866 62.119-62.118 0-6.431-.98-12.773-2.913-18.85-1.256-3.947-5.475-6.13-9.421-4.874-3.947 1.256-6.129 5.474-4.874 9.421 1.465 4.604 2.208 9.417 2.208 14.303 0 25.981-21.138 47.118-47.119 47.118h-53.928c-25.981 0-47.119-21.137-47.119-47.118s21.138-47.119 47.119-47.119h53.928c10.778 0 20.92 3.54 29.329 10.238 3.242 2.582 7.96 2.046 10.54-1.194s2.045-7.959-1.194-10.54c-10.935-8.708-24.67-13.504-38.675-13.504h-53.928c-34.252 0-62.119 27.866-62.119 62.119 0 34.252 27.866 62.118 62.119 62.118h4.464v36.933c-11.863.709-23.525 1.974-34.811 3.765-18.189-69.138-50.043-110.237-85.691-110.237-20.512 0-40.086 13.694-56.605 39.604-15.019 23.556-26.947 56.11-34.494 94.145-.806 4.063 1.834 8.011 5.896 8.816.493.098.984.146 1.468.145 3.506 0 6.64-2.472 7.348-6.041 2.53-12.75 5.559-24.767 9.003-35.917 3.03 1.553 6.818 2.703 11.775 2.703 9.687 0 14.914-4.392 18.731-7.598 3.133-2.632 4.859-4.081 9.077-4.081s5.943 1.45 9.076 4.082c3.816 3.206 9.042 7.597 18.725 7.597 9.687 0 14.915-4.392 18.732-7.598 3.133-2.632 4.859-4.081 9.076-4.081 4.218 0 5.944 1.449 9.077 4.081 3.817 3.206 9.045 7.598 18.731 7.598 4.95 0 8.735-1.148 11.763-2.699 1.223 3.951 2.393 8.013 3.507 12.179-15.784 3.256-30.621 7.584-43.982 12.893-32.022 12.72-54.302 30.586-63.092 50.505-5.099 2.115-8.786 5.212-12.014 7.924-4.796 4.029-8.262 6.94-15.883 6.94s-11.086-2.911-15.882-6.94c-.913-.767-1.868-1.569-2.886-2.374.441-4.839.959-9.684 1.546-14.447.506-4.111-2.416-7.854-6.526-8.361-4.113-.516-7.854 2.414-8.361 6.525-.37 3.001-.713 6.033-1.028 9.076-1.317-.297-2.714-.528-4.2-.677-2.948-.287-5.898.678-8.099 2.668-2.21 2-3.477 4.854-3.477 7.83v16.805c0 68.38 26.629 132.668 74.981 181.02s112.639 74.98 181.019 74.98c35.577 0 70.014-7.161 102.356-21.284 31.237-13.642 59.069-33.104 82.723-57.849 2.861-2.994 2.755-7.742-.239-10.604-2.995-2.862-7.742-2.755-10.604.239-22.272 23.301-48.476 41.626-77.882 54.467-30.438 13.292-62.856 20.031-96.354 20.031-64.373 0-124.894-25.068-170.412-70.587-45.52-45.518-70.588-106.039-70.588-170.413v-11.226c3.079 1.211 5.454 3.206 8.382 5.666 5.544 4.658 12.445 10.455 25.531 10.455s19.986-5.797 25.531-10.455c4.796-4.029 8.262-6.94 15.883-6.94 7.622 0 11.087 2.911 15.884 6.94 5.545 4.658 12.446 10.455 25.532 10.455s19.987-5.797 25.532-10.455c4.796-4.029 8.262-6.94 15.884-6.94s11.087 2.911 15.884 6.94c5.545 4.658 12.446 10.455 25.532 10.455 13.085 0 19.985-5.797 25.53-10.455 4.796-4.029 8.261-6.94 15.881-6.94 7.622 0 11.088 2.911 15.884 6.94 5.545 4.658 12.446 10.455 25.532 10.455s19.987-5.797 25.532-10.455c4.796-4.029 8.262-6.94 15.884-6.94 7.623 0 11.089 2.911 15.886 6.94 5.546 4.658 12.447 10.455 25.533 10.455s19.987-5.797 25.532-10.455c4.797-4.029 8.263-6.94 15.885-6.94 7.624 0 11.09 2.911 15.888 6.94 5.545 4.658 12.447 10.455 25.535 10.455s19.989-5.797 25.535-10.454c2.93-2.462 5.307-4.458 8.388-5.668v11.227c0 51.57-16.052 100.75-46.42 142.225-2.447 3.342-1.722 8.035 1.62 10.481 3.342 2.447 8.034 1.721 10.481-1.62 32.265-44.063 49.319-96.308 49.319-151.086v-16.805c0-2.976-1.267-5.83-3.477-7.829zm-339.909-88.214c-4.223 0-5.949-1.45-9.084-4.083-3.816-3.206-9.042-7.596-18.724-7.596-9.681 0-14.908 4.39-18.724 7.596-3.135 2.633-4.862 4.083-9.084 4.083-4.218 0-5.943-1.45-9.076-4.082-3.816-3.206-9.042-7.597-18.725-7.597-9.682 0-14.908 4.39-18.724 7.596-3.135 2.633-4.861 4.083-9.084 4.083-3.126 0-4.884-.796-6.858-2.279 16.176-43.994 39.168-71.175 62.467-71.175 23.042 0 46.184 27.057 62.455 71.187-1.969 1.476-3.724 2.267-6.839 2.267zm191.905 12.373c6.135-6.118 14.281-9.485 22.945-9.485h.045c8.686.012 16.845 3.403 22.975 9.549 6.129 6.146 9.498 14.31 9.486 22.989-.013 7.865-2.851 15.361-7.919 21.217-9.935-7.227-22.021-13.735-35.952-19.269-6.574-2.612-13.505-4.986-20.729-7.113 1.062-6.75 4.219-12.971 9.149-17.888zm-112.019-31.285h15v36.334c-2.495-.05-4.995-.075-7.5-.075s-5.005.025-7.5.075zm147.621 114.715c-4.797 4.029-8.262 6.94-15.884 6.94s-11.088-2.911-15.885-6.94c-5.546-4.658-12.447-10.455-25.534-10.455-13.086 0-19.987 5.797-25.532 10.455-4.796 4.029-8.262 6.94-15.884 6.94s-11.088-2.911-15.884-6.94c-5.545-4.658-12.446-10.455-25.532-10.455-13.085 0-19.985 5.797-25.53 10.455-4.796 4.029-8.261 6.94-15.881 6.94-7.622 0-11.087-2.911-15.883-6.94-5.545-4.658-12.446-10.455-25.532-10.455s-19.987 5.797-25.533 10.455c-4.796 4.029-8.262 6.94-15.884 6.94s-11.087-2.911-15.884-6.94c-4.8-4.033-10.617-8.918-20.583-10.158 22.04-30.991 87.547-53.297 160.724-53.297 73.175 0 138.68 22.304 160.722 53.295-9.977 1.236-15.798 6.125-20.601 10.16z"/><path d="m128.088 318.634c4.125 3.466 9.776 8.213 20.192 8.213s16.066-4.747 20.192-8.213c3.487-2.929 5.592-4.697 10.544-4.697s7.056 1.769 10.543 4.697c4.125 3.466 9.776 8.213 20.192 8.213s16.065-4.747 20.191-8.213c3.486-2.929 5.591-4.697 10.541-4.697 4.952 0 7.057 1.769 10.544 4.698 4.125 3.466 9.775 8.212 20.191 8.212 4.143 0 7.5-3.357 7.5-7.5s-3.357-7.5-7.5-7.5c-4.951 0-7.056-1.769-10.543-4.697-4.125-3.466-9.776-8.213-20.192-8.213-10.415 0-16.065 4.747-20.19 8.213-3.486 2.929-5.591 4.697-10.542 4.697-4.952 0-7.057-1.769-10.543-4.697-4.125-3.466-9.776-8.213-20.192-8.213s-16.066 4.747-20.192 8.213c-3.487 2.929-5.592 4.697-10.544 4.697s-7.056-1.769-10.543-4.697c-4.125-3.466-9.776-8.213-20.192-8.213s-16.066 4.747-20.191 8.213c-3.487 2.929-5.591 4.697-10.542 4.697-4.142 0-7.5 3.357-7.5 7.5s3.358 7.5 7.5 7.5c10.416 0 16.065-4.747 20.191-8.213 3.487-2.929 5.592-4.697 10.543-4.697 4.95 0 7.055 1.768 10.542 4.697z"/><path d="m313.067 371.952c0-4.143-3.357-7.5-7.5-7.5-4.952 0-7.057-1.769-10.544-4.698-4.126-3.466-9.775-8.212-20.191-8.212s-16.065 4.747-20.191 8.213c-3.486 2.929-5.591 4.697-10.542 4.697-4.952 0-7.057-1.769-10.543-4.697-4.125-3.466-9.776-8.213-20.192-8.213s-16.066 4.747-20.192 8.213c-3.487 2.929-5.592 4.697-10.544 4.697s-7.056-1.769-10.543-4.697c-4.125-3.466-9.776-8.213-20.192-8.213s-16.066 4.747-20.191 8.213c-3.487 2.929-5.591 4.697-10.542 4.697-4.142 0-7.5 3.357-7.5 7.5s3.358 7.5 7.5 7.5c10.416 0 16.065-4.747 20.191-8.213 3.487-2.929 5.592-4.697 10.543-4.697 4.952 0 7.057 1.769 10.544 4.697 4.125 3.466 9.776 8.213 20.192 8.213s16.066-4.747 20.192-8.213c3.487-2.929 5.592-4.697 10.544-4.697s7.056 1.769 10.543 4.697c4.125 3.466 9.776 8.213 20.192 8.213s16.065-4.747 20.19-8.213c3.487-2.929 5.592-4.697 10.542-4.697 4.951 0 7.056 1.769 10.543 4.697 4.126 3.466 9.776 8.213 20.192 8.213 4.142 0 7.499-3.357 7.499-7.5z"/><path d="m291.914 415.86c-4.126-3.466-9.775-8.212-20.191-8.212s-16.066 4.747-20.192 8.213c-3.487 2.929-5.592 4.697-10.544 4.697s-7.057-1.769-10.544-4.697c-4.125-3.466-9.776-8.213-20.192-8.213s-16.066 4.747-20.191 8.213c-3.487 2.929-5.592 4.697-10.543 4.697-4.142 0-7.5 3.357-7.5 7.5s3.358 7.5 7.5 7.5c10.416 0 16.066-4.747 20.191-8.213 3.487-2.929 5.592-4.697 10.543-4.697 4.952 0 7.056 1.769 10.543 4.697 4.125 3.466 9.776 8.213 20.192 8.213s16.066-4.747 20.192-8.213c3.487-2.929 5.592-4.697 10.544-4.697 4.951 0 7.056 1.769 10.543 4.697 4.126 3.466 9.776 8.213 20.192 8.213 4.143 0 7.5-3.357 7.5-7.5s-3.357-7.5-7.5-7.5c-4.951.001-7.056-1.768-10.543-4.698z"/><path d="m392.174 325.861c-1.327-1.25-2.821-2.418-4.471-3.485-6.335-4.1-14.524-6.451-22.467-6.451-16.958 0-29.267 10.689-29.267 25.416s12.309 25.416 29.267 25.416c7.942 0 16.132-2.352 22.467-6.451 1.649-1.067 3.143-2.235 4.471-3.485 5.203 4.344 12.636 7.02 21.014 7.02 9.59 0 16.287-9.252 16.287-22.5s-6.697-22.5-16.287-22.5c-8.378 0-15.811 2.676-21.014 7.02zm-26.938 25.896c-8.533 0-14.267-4.186-14.267-10.416s5.733-10.416 14.267-10.416c10.978 0 19.238 6.318 19.238 10.416s-8.26 10.416-19.238 10.416zm47.497-2.921c-7.502-.154-13.259-4.095-13.259-7.495s5.757-7.341 13.259-7.495c.61.793 1.741 3.318 1.741 7.495s-1.13 6.702-1.741 7.495z"/></g></g></svg>